<svg width="294" height="80" viewBox="0 0 294 80" fill="none" xmlns="http://www.w3.org/2000/svg">
<path d="M293.391 0V76.4952H250.319V74.4121H291.304V2.08317H2.0866V74.4121H43.0723V76.4951H0V0H293.391ZM27.9437 20.1077C27.8784 19.8127 27.7022 19.554 27.4515 19.3852C27.2008 19.2165 26.8949 19.1505 26.597 19.201C25.9755 19.201 24.6288 19.3606 22.195 19.3606C17.7922 19.3606 16.3936 19.201 15.876 19.201C15.5652 19.201 15.5133 19.3606 15.5133 19.5211V20.9083C15.5133 21.1214 15.5652 21.2818 15.876 21.2818H19.0348C21.1587 21.2818 21.1068 22.0289 21.1587 23.2557C21.2106 24.8026 21.2106 32.8594 21.2106 33.6064C21.2106 34.5666 21.0549 48.2249 20.4335 52.0131C20.1228 53.8265 19.6563 55.2137 17.6881 55.2137H14.9438C14.6842 55.2137 14.6331 55.3741 14.6331 55.5338V56.8149C14.6331 57.2411 14.6842 57.2946 15.0988 57.2946C15.5652 57.2946 17.3774 57.135 21.7804 57.135C26.0794 57.135 27.478 57.2946 28.0475 57.2946C28.462 57.2946 28.514 57.135 28.514 56.921V55.5873C28.514 55.3742 28.462 55.2138 28.1513 55.2138H25.5617C23.9043 55.2138 23.4378 54.3605 23.1791 51.3195C23.0233 49.4516 23.0752 38.1943 23.0752 37.5542C23.0752 36.9141 23.1791 23.4162 23.3859 22.6691C24.1112 23.3093 28.8247 35.2605 29.8088 37.7146L36.8522 55.5873C37.0599 56.1213 37.3187 56.5475 37.6294 56.5475C38.044 56.5475 38.4586 55.7478 38.6654 55.2672C38.8723 54.7876 44.6218 41.1819 44.9325 40.5418C45.1913 40.0088 52.5464 23.2024 53.0647 22.5086H53.1678C53.3235 22.9892 53.3236 32.4858 53.3236 36.0074V39.4219C53.3236 43.3697 53.2716 52.6532 53.2197 53.2934C53.1158 54.8937 52.6502 55.2138 51.7691 55.2138H48.2475C47.8849 55.2138 47.8329 55.3207 47.8329 55.5873V56.8149C47.8329 57.135 47.8849 57.2946 48.2475 57.2946C48.9208 57.2946 50.9409 57.135 55.7063 57.135C61.403 57.135 62.3361 57.2946 62.9575 57.2946C63.3713 57.2946 63.4232 57.135 63.4232 56.8149V55.5873C63.4232 55.3742 63.3713 55.2138 63.0606 55.2138H60.0053C58.7105 55.2138 58.244 54.3605 58.244 52.3332C58.244 51.266 58.0882 42.6226 58.0882 39.9551V36.2203C58.0882 32.6453 58.244 25.0164 58.244 23.4687C58.244 22.2419 58.399 21.2817 59.9533 21.2817H62.232C62.5947 21.2817 62.6466 21.1213 62.6466 20.8012V19.5744C62.6466 19.3605 62.5947 19.2009 62.3359 19.2009C61.7655 19.2009 60.0051 19.3605 53.1157 19.3605C52.5981 19.3605 52.0286 19.414 51.9248 20.0014C51.769 21.0678 46.1242 33.6063 45.7615 34.3525C45.347 35.0462 40.167 47.7978 39.4425 48.5983L27.9437 20.1077ZM76.3248 21.0679L85.5441 21.2818C86.9624 21.3971 88.3228 21.895 89.4804 22.7225C90.7241 23.5223 94.5566 28.5907 94.6604 28.8046C94.7123 28.9107 94.9192 29.0712 95.075 28.9642L95.8513 28.538C96.059 28.4311 96.059 28.2706 96.0071 28.0575L93.3656 19.4676C93.3412 19.3801 93.2855 19.3046 93.209 19.2554C93.1326 19.2063 93.0408 19.1869 92.951 19.201C92.6923 19.201 91.7082 19.3079 90.8791 19.3079C85.7518 19.3079 80.6238 19.3606 75.4965 19.3606H73.2168C69.7988 19.3606 67.9857 19.201 66.8467 19.201C66.5871 19.201 66.484 19.3079 66.484 19.4676V20.9083C66.484 21.2283 66.639 21.2818 66.8986 21.2818H68.7629C70.6791 21.2818 71.1976 21.6554 71.4044 23.3627C71.4564 23.8957 71.5594 30.5654 71.5594 34.9936V52.8663C71.5594 54.8402 71.3525 55.2137 68.9698 55.2137H66.8986C66.536 55.2137 66.3803 55.2672 66.3803 55.4811V56.921C66.3803 57.1884 66.536 57.2945 66.8468 57.2945C67.3124 57.2945 67.9858 57.2411 69.0737 57.1884C70.1097 57.1884 71.5595 57.1349 73.4765 57.1349C81.556 57.1349 86.5801 57.1884 89.6882 57.1884C92.7953 57.2411 93.9352 57.2945 94.194 57.2945C94.4471 57.3131 94.6988 57.2437 94.9065 57.0979C95.1142 56.9522 95.2652 56.7391 95.3338 56.4948L98.0783 48.652C98.2341 48.2249 98.2341 48.0645 97.9753 47.9049L97.1462 47.4244C96.8355 47.2647 96.6805 47.4778 96.5248 47.7444C95.7995 48.9718 92.8992 52.8128 92.2777 53.3468C90.931 54.5201 88.6522 55.1076 87.7719 55.2137C86.684 55.3207 84.0944 55.3741 83.2134 55.3741C81.9271 55.3682 80.6441 55.2431 79.3809 55.0006C77.7754 54.6806 76.4806 53.6134 76.4287 50.839C76.4287 49.7718 76.3249 44.5964 76.3249 41.7158V38.4082C77.154 38.4082 80.7276 38.4082 83.1615 38.6748C84.5082 38.8344 85.0785 39.635 85.3892 40.7556C85.5442 41.3424 85.8549 42.569 85.9587 43.2627C86.0107 43.6362 86.1145 43.7967 86.3733 43.7432L87.5123 43.5828C87.5609 43.5756 87.6076 43.5588 87.6496 43.5334C87.6916 43.508 87.7282 43.4745 87.7571 43.4349C87.786 43.3952 87.8068 43.3501 87.8181 43.3023C87.8294 43.2546 87.8311 43.205 87.823 43.1566C87.72 42.0359 87.5123 39.4745 87.5123 37.6077C87.5123 36.8071 87.5123 32.4323 87.6681 31.5256C87.6862 31.4766 87.692 31.4238 87.6848 31.3721C87.6777 31.3203 87.6578 31.2711 87.6271 31.2288C87.5964 31.1866 87.5556 31.1526 87.5086 31.1299C87.4615 31.1071 87.4096 31.0964 87.3574 31.0985L86.0625 31.0451C86.0127 31.04 85.9624 31.0463 85.9153 31.0634C85.8683 31.0806 85.8257 31.1082 85.7908 31.1441C85.756 31.18 85.7297 31.2234 85.7139 31.2709C85.6982 31.3185 85.6934 31.369 85.6999 31.4186C85.6514 32.3018 85.5125 33.1777 85.2853 34.0326C84.8189 35.6873 84.4052 36.1135 82.9027 36.3809C82.2812 36.487 76.7394 36.7009 76.3249 36.7009L76.3248 21.0679ZM129.212 49.2921C129.212 52.0666 129.005 53.2398 127.813 53.9869C126.001 55.0541 123.462 55.8011 119.319 55.8011C117.624 55.8104 115.943 55.48 114.378 54.8294C112.812 54.1787 111.393 53.2211 110.203 52.013C106.992 48.865 105.282 43.3696 105.282 37.0745C105.231 32.5609 106.855 28.1885 109.84 24.8026C112.948 21.388 116.159 20.4813 119.734 20.4813C121.532 20.456 123.314 20.8361 124.946 21.5934C126.577 22.3507 128.018 23.4658 129.16 24.8558C130.598 26.731 131.654 28.8701 132.268 31.1518C132.32 31.4184 132.475 31.5788 132.682 31.5788L133.615 31.4718C133.821 31.4718 133.873 31.2587 133.873 30.9914L133.718 20.8009C133.718 20.4274 133.615 20.1608 133.252 20.1608C132.941 20.1608 132.734 20.4274 132.527 20.6413L131.749 21.6015C131.439 22.0286 131.128 22.1345 130.558 21.655C128.797 20.2678 124.809 18.5605 120.355 18.5605C114.139 18.5605 109.478 20.3739 105.801 23.6289C103.957 25.3723 102.487 27.4728 101.48 29.8025C100.474 32.1323 99.9526 34.6425 99.9477 37.1802C99.9477 43.6358 101.553 48.1711 104.713 51.8522C108.287 56.1744 114.606 57.9343 119.215 57.9343C124.144 58.0356 129.016 56.8592 133.355 54.5197C133.873 54.3066 134.184 54.0935 134.184 53.6665C134.184 53.2394 133.977 52.7063 133.977 51.9592V44.9171C133.977 43.2625 134.651 42.889 135.583 42.889H137.603C137.914 42.889 137.966 42.6759 137.966 42.4628V41.1817C137.966 40.9686 137.914 40.8089 137.551 40.8089C136.826 40.8089 135.168 40.9686 131.439 40.9686C127.917 40.9686 125.586 40.8089 124.861 40.8089C124.602 40.8089 124.55 40.9151 124.55 41.2352V42.5688C124.55 42.7828 124.654 42.8889 124.913 42.8889H127.088C128.642 42.8889 129.212 43.4229 129.212 45.3433L129.212 49.2921ZM144.13 38.0347C144.13 43.1031 144.13 48.118 144.026 53.4003C144.026 54.8402 143.146 55.2137 142.006 55.2137H139.883C139.624 55.2137 139.624 55.3741 139.624 55.6407V56.8683C139.624 57.1349 139.624 57.2945 140.038 57.2945C140.609 57.2945 141.799 57.1349 146.513 57.1349C151.433 57.1349 152.728 57.2945 153.298 57.2945C153.816 57.2945 153.868 57.1884 153.868 56.8149V55.6407C153.868 55.3741 153.816 55.2137 153.453 55.2137H150.191C149.413 55.2137 148.999 54.2535 148.896 53.1329C148.844 52.3331 148.792 46.3572 148.792 43.21V40.2216C149.353 40.1005 149.927 40.0469 150.501 40.062C153.505 40.062 154.748 41.5027 156.095 43.1566C156.717 43.9036 159.203 47.7444 159.41 48.1179C159.669 48.545 162.466 53.6134 162.88 54.2535C163.346 54.9471 164.486 56.7614 165.056 57.2945C165.833 57.2411 167.749 57.1349 169.251 57.1349C171.53 57.1349 172.877 57.2945 173.291 57.2945C173.654 57.2945 173.706 57.1349 173.706 56.8149V55.6407C173.706 55.4276 173.654 55.2137 173.291 55.2137C171.84 55.2137 170.65 55.1076 169.562 54.307C168.578 53.5599 165.263 48.7046 165.004 48.1714C164.589 47.4778 160.912 42.0359 160.29 41.3423C159.718 40.442 158.888 39.7355 157.907 39.3151V39.2081C164.537 37.7147 167.49 35.2069 167.49 28.5381C167.39 26.2437 166.428 24.0713 164.797 22.4552C162.828 20.5348 159.41 19.201 155.111 19.201C154.179 19.201 149.361 19.3606 146.461 19.3606C142.11 19.3606 140.505 19.201 140.038 19.201C139.779 19.201 139.727 19.3079 139.727 19.5745V20.9083C139.727 21.1214 139.779 21.2818 140.038 21.2818H142.11C143.405 21.2818 144.026 22.1886 144.078 23.9493C144.13 25.4962 144.13 28.9107 144.13 32.8593V38.0347ZM148.792 23.0424C148.759 22.7293 148.798 22.4129 148.906 22.1172C149.013 21.8214 149.187 21.554 149.413 21.3351C149.947 21.0267 150.559 20.8784 151.174 20.9081C155.473 20.9081 157.752 21.7087 159.772 23.3625C160.601 24.1423 161.259 25.0853 161.704 26.1322C162.15 27.179 162.374 28.3069 162.362 29.4446C162.362 31.685 160.55 38.3546 151.123 38.3546C150.34 38.3728 149.558 38.301 148.792 38.1407L148.792 23.0424ZM190.647 40.2214C192.615 37.2875 201.886 23.4688 202.922 22.455C203.579 21.7428 204.492 21.3208 205.46 21.2816H206.756C207.118 21.2816 207.17 21.1212 207.17 20.8011V19.521C207.17 19.3078 207.118 19.2009 206.756 19.2009C206.289 19.2009 205.15 19.3605 202.094 19.3605C198.624 19.3605 196.5 19.2009 195.982 19.2009C195.671 19.2009 195.619 19.3078 195.619 19.521V20.8012C195.619 21.1213 195.671 21.2817 195.982 21.2817H197.381C199.556 21.2817 199.297 22.455 199.09 23.3626C198.882 24.3228 191.631 35.4197 189.715 38.5142C188.161 35.4732 181.79 23.8958 181.635 23.0425C181.428 21.7614 181.635 21.2817 183.189 21.2817H184.897C185.209 21.2817 185.26 21.0678 185.26 20.8012V19.4675C185.26 19.3078 185.209 19.2009 184.897 19.2009C184.38 19.2009 182.516 19.3605 177.181 19.3605C174.021 19.3605 171.587 19.2009 171.12 19.2009C170.81 19.2009 170.758 19.3078 170.758 19.521V20.9082C170.758 21.1213 170.81 21.2817 171.12 21.2817H172.415C172.926 21.3076 173.427 21.434 173.89 21.6537C174.352 21.8733 174.766 22.182 175.109 22.562C176.611 24.4299 185.209 39.4745 185.882 40.8617V43.9562C185.882 48.9185 185.779 53.1328 185.727 53.8799C185.675 54.6805 185.26 55.2136 183.914 55.2136H181.376C181.065 55.2136 181.013 55.374 181.013 55.5871V56.8683C181.013 57.1349 181.117 57.2945 181.324 57.2945C181.894 57.2945 183.5 57.1349 188.161 57.1349C192.511 57.1349 194.531 57.2945 195.154 57.2945C195.516 57.2945 195.516 57.1349 195.516 56.8148V55.5872C195.516 55.3741 195.516 55.2137 195.154 55.2137H193.134C191.787 55.2137 191.01 55.0541 190.854 53.3468C190.803 52.76 190.647 49.2921 190.647 47.2112L190.647 40.2214ZM224.319 57.9345C231.621 57.9345 236.645 53.6132 239.753 48.9718C239.908 48.7044 239.805 48.5983 239.649 48.4913L238.976 47.9584C238.821 47.7979 238.717 47.8514 238.562 48.1179C237.13 50.1908 235.22 51.8886 232.993 53.0679C230.766 54.2472 228.288 54.8734 225.769 54.8937C222.299 54.8937 219.347 54.4675 215.824 50.4119C211.784 45.824 210.852 39.7954 210.852 36.7008C210.8 28.9106 214.529 20.4276 223.8 20.4276C227.893 20.4276 230.637 22.2418 232.813 24.5358C234.563 26.4683 235.933 28.7126 236.853 31.1518C237.008 31.5788 237.112 31.6315 237.371 31.5788L238.148 31.3649C238.355 31.3114 238.407 31.0983 238.355 30.8319C238.096 29.3377 237.06 21.4949 237.06 20.4812C237.06 19.7341 236.956 19.628 236.49 19.628C236.024 19.628 235.921 19.628 235.817 19.948L235.403 21.4949C235.299 21.8684 235.04 21.9219 234.367 21.4949C231.196 19.6184 227.588 18.6067 223.904 18.561C218.259 18.561 213.597 21.068 210.956 23.9496C207.226 28.0043 205.673 33.1262 205.673 38.0884C205.673 43.2103 207.485 49.3986 211.214 53.0269C214.322 55.9607 218.207 57.9345 224.319 57.9345V57.9345ZM259.957 57.9345C267.104 57.9345 271.714 54.7338 274.873 50.4117C277.374 47.0276 278.734 42.9361 278.758 38.7283C278.802 35.7139 278.19 32.7259 276.965 29.9714C275.74 27.2168 273.931 24.7614 271.663 22.7752C268.453 19.9768 264.317 18.4743 260.06 18.5609C255.71 18.5609 250.582 19.628 246.024 25.3365C242.94 29.0802 241.239 33.7713 241.207 38.6213C241.207 46.4109 245.143 52.1727 248.82 54.4675C252.158 56.5941 256.002 57.791 259.957 57.9345V57.9345ZM260.37 55.9071C255.968 55.9071 246.489 50.9457 246.489 36.9138C246.489 32.539 248.199 27.1506 251.669 23.736C255.554 19.9479 259.075 20.588 259.853 20.588C265.602 20.588 273.682 27.4707 273.682 39.1543C273.682 43.9035 271.765 55.9072 260.37 55.9072V55.9071ZM106.596 74.4112H104.51V76.4931H106.596V74.4112ZM180.863 74.4112H178.778V76.4931H180.863V74.4112ZM49.8765 71.2987H53.6257C54.469 71.283 55.3042 71.4656 56.0641 71.8317C56.7493 72.1639 57.3238 72.6874 57.7181 73.3389C58.1036 74.0255 58.3062 74.7998 58.3062 75.5873C58.3062 76.3747 58.1036 77.149 57.7181 77.8356C57.3238 78.4872 56.7494 79.0107 56.0641 79.3428C55.3043 79.7092 54.4691 79.8918 53.6257 79.8758H49.8765V71.2987ZM53.5522 78.5278C54.1263 78.5399 54.6952 78.4162 55.2123 78.1666C55.6742 77.9408 56.0582 77.5824 56.3152 77.1371C56.5686 76.6598 56.7011 76.1276 56.7011 75.5872C56.7011 75.0468 56.5686 74.5146 56.3152 74.0373C56.058 73.5923 55.674 73.2339 55.2123 73.0079C54.6952 72.7583 54.1263 72.6345 53.5522 72.6467H51.4691V78.5278H53.5522ZM67.0422 78.5402V79.8757H60.6097V71.2989H66.8707V72.6345H62.2025V74.8642H66.3439V76.1753H62.2025V78.5402L67.0422 78.5402ZM70.1729 79.7164C69.6384 79.5713 69.1398 79.3168 68.7086 78.9691L69.2601 77.7315C69.6494 78.0296 70.0864 78.2596 70.5526 78.4117C71.0469 78.5845 71.5666 78.6735 72.0902 78.675C72.5854 78.7082 73.0799 78.602 73.5178 78.3685C73.6611 78.2876 73.7803 78.1701 73.8632 78.028C73.9461 77.8859 73.9897 77.7243 73.9896 77.5597C73.9925 77.4456 73.9704 77.3321 73.9249 77.2274C73.8794 77.1227 73.8115 77.0291 73.726 76.9534C73.5318 76.7838 73.3044 76.6565 73.0583 76.5797C72.7887 76.49 72.4211 76.388 71.9554 76.2736C71.4171 76.1526 70.8872 75.9971 70.3689 75.8079C69.9668 75.6546 69.609 75.4041 69.3273 75.0787C69.021 74.7009 68.8659 74.2227 68.8921 73.737C68.8881 73.2773 69.0226 72.827 69.2781 72.4447C69.5682 72.03 69.9725 71.7086 70.4419 71.5194C71.0465 71.2747 71.6952 71.1579 72.3472 71.1764C72.8681 71.1761 73.3869 71.242 73.8911 71.3726C74.3567 71.4855 74.7999 71.676 75.2021 71.9363L74.6997 73.1734C74.3308 72.9561 73.9355 72.7873 73.5234 72.6712C73.137 72.56 72.7372 72.5022 72.3352 72.4994C71.8463 72.4649 71.3582 72.5758 70.9323 72.8184C70.7896 72.9081 70.6724 73.0329 70.592 73.1809C70.5115 73.3289 70.4704 73.4952 70.4726 73.6636C70.4693 73.777 70.4912 73.8897 70.5368 73.9936C70.5824 74.0975 70.6505 74.1899 70.7362 74.2642C70.9317 74.4305 71.1589 74.5555 71.404 74.6316C71.6733 74.7213 72.0409 74.8234 72.5066 74.9377C73.0395 75.054 73.5636 75.2076 74.0749 75.3973C74.4777 75.5527 74.837 75.8028 75.1226 76.1265C75.4279 76.4978 75.583 76.97 75.5574 77.45C75.5621 77.908 75.4275 78.3567 75.1715 78.7365C74.8783 79.1492 74.472 79.4682 74.0015 79.6551C73.3947 79.8996 72.7439 80.0164 72.09 79.9981C71.4405 79.9998 70.7944 79.9049 70.1729 79.7165V79.7164ZM77.7509 71.2987H79.3438V79.8755H77.7509V71.2987ZM88.1289 75.4893H89.6358V78.9076C89.1749 79.2692 88.6517 79.5433 88.092 79.7164C87.5058 79.9037 86.8941 79.9987 86.2787 79.998C85.455 80.0104 84.6416 79.8146 83.9138 79.4286C83.2286 79.0652 82.6565 78.5205 82.2598 77.854C81.8664 77.1634 81.6595 76.3821 81.6595 75.5873C81.6595 74.7924 81.8664 74.0112 82.2598 73.3205C82.6576 72.6527 83.2322 72.1078 83.9201 71.7459C84.6541 71.3593 85.4736 71.1633 86.3032 71.1761C86.9734 71.1672 87.639 71.2879 88.2635 71.5315C88.8336 71.7556 89.342 72.1127 89.7462 72.5731L88.7415 73.553C88.4351 73.2368 88.0672 72.9868 87.6605 72.8182C87.2537 72.6497 86.8168 72.5662 86.3766 72.5731C85.8162 72.5625 85.2622 72.6931 84.7655 72.9529C84.3048 73.1972 83.9225 73.5668 83.6627 74.0189C83.392 74.4966 83.2545 75.0381 83.2645 75.5871C83.2565 76.1282 83.394 76.6615 83.6627 77.1312C83.9245 77.5849 84.306 77.9578 84.7655 78.2091C85.2557 78.4758 85.8066 78.6109 86.3645 78.6014C86.9816 78.6147 87.5909 78.4623 88.1291 78.1601L88.1289 75.4893ZM99.9647 71.2987V79.8755H98.6537L93.9241 74.0678V79.8755H92.3435V71.2987H93.6546L98.3842 77.1064V71.2988L99.9647 71.2987ZM110.869 71.2987H114.618C115.462 71.283 116.297 71.4656 117.057 71.8317C117.742 72.1639 118.316 72.6874 118.711 73.3389C119.096 74.0255 119.299 74.7998 119.299 75.5873C119.299 76.3747 119.096 77.149 118.711 77.8356C118.316 78.4872 117.742 79.0106 117.057 79.3428C116.297 79.7092 115.462 79.8918 114.618 79.8758H110.869V71.2987ZM114.545 78.5278C115.119 78.5399 115.688 78.4162 116.205 78.1666C116.667 77.9408 117.051 77.5824 117.308 77.1371C117.561 76.6598 117.694 76.1276 117.694 75.5872C117.694 75.0468 117.561 74.5146 117.308 74.0373C117.051 73.5923 116.667 73.2339 116.205 73.0079C115.688 72.7583 115.119 72.6345 114.545 72.6467H112.462V78.5278H114.545ZM128.035 78.5402V79.8757H121.602V71.2989H127.863V72.6345H123.195V74.8642H127.337V76.1753H123.195V78.5402L128.035 78.5402ZM138.143 71.2987L134.406 79.8755H132.838L129.089 71.2987H130.816L133.671 77.9152L136.55 71.2987H138.143ZM146.095 78.5402V79.8757H139.662V71.2989H145.923V72.6345H141.255V74.8642H145.397V76.1753H141.255V78.5402L146.095 78.5402ZM148.484 71.2987H150.077V78.5278H154.562V79.8757H148.484L148.484 71.2987ZM157.919 79.4286C157.233 79.0642 156.66 78.5172 156.265 77.848C155.872 77.1596 155.665 76.3804 155.665 75.5875C155.665 74.7945 155.872 74.0153 156.265 73.3269C156.66 72.6576 157.232 72.1106 157.919 71.7463C158.651 71.3717 159.461 71.1764 160.284 71.1764C161.106 71.1764 161.917 71.3717 162.649 71.7463C163.334 72.1097 163.906 72.6543 164.303 73.3208C164.696 74.0115 164.903 74.7927 164.903 75.5876C164.903 76.3825 164.696 77.1637 164.303 77.8544C163.906 78.5208 163.334 79.0654 162.649 79.4289C161.916 79.8032 161.106 79.9983 160.284 79.9983C159.462 79.9983 158.651 79.8032 157.919 79.4289V79.4286ZM161.828 78.2154C162.28 77.9632 162.654 77.5898 162.906 77.1371C163.163 76.661 163.298 76.1284 163.298 75.5872C163.298 75.046 163.163 74.5134 162.906 74.0373C162.653 73.5849 162.28 73.2115 161.828 72.959C161.352 72.7057 160.822 72.5733 160.284 72.5733C159.745 72.5733 159.215 72.7057 158.74 72.959C158.287 73.2114 157.914 73.5848 157.662 74.0373C157.404 74.5134 157.27 75.046 157.27 75.5872C157.27 76.1284 157.404 76.661 157.662 77.1371C157.914 77.5898 158.287 77.9633 158.74 78.2154C159.215 78.469 159.745 78.6016 160.284 78.6016C160.822 78.6016 161.352 78.469 161.828 78.2154ZM172.677 71.6667C173.195 71.8838 173.637 72.2505 173.945 72.7201C174.234 73.2135 174.386 73.7749 174.386 74.3467C174.386 74.9185 174.234 75.4799 173.945 75.9734C173.638 76.4457 173.196 76.8149 172.677 77.033C172.063 77.2904 171.401 77.4156 170.735 77.4005H168.799V79.8757H167.206V71.2989H170.735C171.401 71.2839 172.063 71.4092 172.677 71.6667L172.677 71.6667ZM172.242 75.6117C172.413 75.4486 172.548 75.2528 172.641 75.0359C172.734 74.8191 172.781 74.5857 172.781 74.3498C172.781 74.114 172.734 73.8806 172.641 73.6637C172.548 73.4469 172.413 73.251 172.242 73.088C171.782 72.7631 171.224 72.6072 170.662 72.6467H168.799V76.053H170.662C171.224 76.0922 171.782 75.9363 172.242 75.6117L172.242 75.6117ZM192.581 79.8756L192.569 74.1902L189.751 78.8956H189.04L186.222 74.2641V79.8756H184.703V71.2988H186.014L189.42 76.9842L192.765 71.2988H194.076L194.088 79.8756H192.581ZM202.579 77.8906H198.291L197.445 79.8756H195.804L199.663 71.2988H201.231L205.103 79.8756H203.437L202.579 77.8906ZM202.052 76.641L200.435 72.8917L198.83 76.641H202.052ZM214.427 71.2986V79.8754H213.116L208.387 74.0677V79.8754H206.806V71.2986H208.117L212.847 77.1063V71.2988L214.427 71.2986ZM222.906 77.8906H218.617L217.772 79.8756H216.13L219.99 71.2988H221.558L225.43 79.8756H223.763L222.906 77.8906ZM222.379 76.641L220.762 72.8917L219.157 76.641H222.379ZM232.867 75.4893H234.374V78.9076C233.913 79.2691 233.39 79.5433 232.831 79.7163C232.244 79.9037 231.633 79.9987 231.017 79.998C230.194 80.0104 229.38 79.8145 228.652 79.4285C227.967 79.0651 227.395 78.5205 226.998 77.854C226.605 77.1633 226.398 76.3821 226.398 75.5872C226.398 74.7923 226.605 74.0111 226.998 73.3204C227.396 72.6527 227.971 72.1078 228.659 71.7459C229.393 71.3592 230.212 71.1633 231.042 71.176C231.712 71.1671 232.378 71.2878 233.002 71.5315C233.572 71.7556 234.081 72.1127 234.485 72.573L233.48 73.553C233.174 73.2368 232.806 72.9867 232.399 72.8182C231.992 72.6496 231.555 72.5662 231.115 72.573C230.555 72.5624 230.001 72.6931 229.504 72.9529C229.043 73.1972 228.661 73.5667 228.401 74.0189C228.131 74.4965 227.993 75.0381 228.003 75.587C227.995 76.1281 228.133 76.6614 228.401 77.1312C228.663 77.5849 229.045 77.9578 229.504 78.209C229.994 78.4757 230.545 78.6109 231.103 78.6014C231.72 78.6147 232.329 78.4623 232.868 78.1601L232.867 75.4893ZM243.515 78.5401V79.8756H237.082V71.2988H243.343V72.6345H238.675V74.8642H242.816V76.1753H238.675V78.5402L243.515 78.5401Z" fill="#111111"/>
</svg>
