<svg width="85" height="59" viewBox="0 0 85 59" fill="none" xmlns="http://www.w3.org/2000/svg">
<path d="M13.0352 10.4025V0H71.9645V10.4025H70.3575V1.60674H14.6424V10.4025H13.0352ZM70.3573 48.5975V57.3931H14.6424V48.5975H13.0355V59H71.9647V48.5975H70.3573ZM10.2521 14.7826C10.2021 14.5552 10.0665 14.3558 9.87338 14.2256C9.68029 14.0954 9.44452 14.0445 9.21488 14.0833C8.73624 14.0833 7.69894 14.2064 5.82438 14.2064C2.43322 14.2064 1.35597 14.0833 0.957284 14.0833C0.717963 14.0833 0.677962 14.2064 0.677962 14.3301V15.4001C0.677962 15.5645 0.717963 15.6881 0.957284 15.6881H3.3905C5.02641 15.6881 4.98635 16.2643 5.02641 17.2106C5.06641 18.4036 5.06642 24.6177 5.06642 25.194C5.06642 25.9345 4.94644 36.4691 4.46797 39.3908C4.22865 40.7894 3.86954 41.8594 2.35349 41.8594H0.239329C0.0393504 41.8594 0 41.9831 0 42.1062V43.0943C0 43.4231 0.0393466 43.4643 0.358681 43.4643C0.717967 43.4643 2.11394 43.3412 5.50505 43.3412C8.8162 43.3412 9.89361 43.4643 10.3321 43.4643C10.6514 43.4643 10.6914 43.3412 10.6914 43.1763V42.1476C10.6914 41.9832 10.6514 41.8595 10.4121 41.8595H8.4173C7.14074 41.8595 6.78144 41.2014 6.58207 38.8559C6.46211 37.4153 6.50212 28.7326 6.50212 28.2389C6.50212 27.7451 6.58207 17.3344 6.74144 16.7582C7.30004 17.252 10.9305 26.4696 11.6885 28.3626L17.1135 42.1476C17.2735 42.5595 17.4729 42.8882 17.712 42.8882C18.0312 42.8882 18.3506 42.2714 18.5099 41.9008C18.6692 41.5302 23.0977 31.0369 23.337 30.5431C23.5365 30.1319 29.2013 17.1694 29.6006 16.6345H29.68C29.7999 17.0051 29.7999 24.3297 29.7999 27.0458V29.6795C29.7999 32.7243 29.76 39.8846 29.72 40.3783C29.64 41.6127 29.2813 41.8595 28.6027 41.8595H25.8902C25.6108 41.8595 25.5709 41.942 25.5709 42.1476V43.0944C25.5709 43.3413 25.6108 43.4644 25.8902 43.4644C26.4088 43.4644 27.9647 43.3413 31.6351 43.3413C36.023 43.3413 36.7416 43.4644 37.2202 43.4644C37.5389 43.4644 37.5789 43.3413 37.5789 43.0944V42.1476C37.5789 41.9832 37.5389 41.8595 37.2996 41.8595H34.9463C33.9489 41.8595 33.5897 41.2014 33.5897 39.6378C33.5897 38.8146 33.4697 32.1483 33.4697 30.0907V27.2101C33.4697 24.4528 33.5897 18.5685 33.5897 17.375C33.5897 16.4288 33.7091 15.6882 34.9063 15.6882H36.6615C36.9409 15.6882 36.9809 15.5644 36.9809 15.3176V14.3714C36.9809 14.2064 36.9409 14.0834 36.7416 14.0834C36.3023 14.0834 34.9462 14.2064 29.6399 14.2064C29.2413 14.2064 28.8027 14.2477 28.7227 14.7008C28.6027 15.5232 24.2549 25.1941 23.9756 25.7696C23.6563 26.3046 19.6665 36.1396 19.1085 36.7573L10.2521 14.7826ZM39.6449 28.6092C39.6449 32.5184 39.6449 36.3863 39.5649 40.4606C39.5649 41.5711 38.887 41.8592 38.009 41.8592H36.3737C36.1743 41.8592 36.1743 41.983 36.1743 42.1886V43.1355C36.1743 43.3412 36.1743 43.4642 36.4929 43.4642C36.9322 43.4642 37.8495 43.3412 41.4799 43.3412C45.2697 43.3412 46.267 43.4642 46.7057 43.4642C47.1049 43.4642 47.1449 43.3824 47.1449 43.0943V42.1888C47.1449 41.9832 47.1049 41.8594 46.8256 41.8594H44.3124C43.714 41.8594 43.3945 41.1189 43.315 40.2545C43.275 39.6377 43.235 35.0285 43.235 32.6011V30.2963C43.6674 30.2028 44.1094 30.1615 44.5517 30.1731C46.8655 30.1731 47.8228 31.2843 48.8601 32.5599C49.3387 33.136 51.2539 36.0985 51.4133 36.3866C51.6128 36.7159 53.7671 40.6251 54.0858 41.1189C54.5882 41.9394 55.1482 42.7232 55.7617 43.4644C56.3602 43.4231 57.8363 43.3413 58.9929 43.3413C60.7481 43.3413 61.7856 43.4644 62.1047 43.4644C62.384 43.4644 62.424 43.3413 62.424 43.0944V42.1888C62.424 42.0245 62.384 41.8594 62.1047 41.8594C60.9874 41.8594 60.0701 41.7776 59.2322 41.1601C58.4742 40.584 55.921 36.8393 55.7217 36.4278C55.4024 35.8929 52.5699 31.6955 52.0912 31.1606C51.6509 30.4665 51.0113 29.9215 50.256 29.5969V29.5144C55.3624 28.3626 57.6368 26.4283 57.6368 21.2848C57.5602 19.5157 56.8194 17.8405 55.5622 16.5931C54.0464 15.112 51.4132 14.0833 48.102 14.0833C47.384 14.0833 43.6736 14.2064 41.4397 14.2064C38.0885 14.2064 36.8517 14.0833 36.4927 14.0833C36.2932 14.0833 36.2533 14.1658 36.2533 14.3713V15.4C36.2533 15.5644 36.2933 15.6881 36.4927 15.6881H38.0885C39.0859 15.6881 39.5644 16.3874 39.6044 17.7455C39.6444 18.9385 39.6444 21.5722 39.6444 24.6177L39.6449 28.6092ZM43.2356 17.0461C43.2104 16.8046 43.2404 16.5607 43.3233 16.3326C43.4062 16.1045 43.5399 15.8982 43.7143 15.7292C44.1254 15.4914 44.5964 15.377 45.0709 15.3999C48.382 15.3999 50.1372 16.0174 51.6932 17.2929C52.3316 17.8948 52.8384 18.6223 53.1817 19.4297C53.525 20.237 53.6974 21.1067 53.688 21.9839C53.688 23.712 52.292 28.8561 45.0311 28.8561C44.4283 28.8702 43.8259 28.8148 43.2358 28.6911L43.2356 17.0461ZM73.0529 44.9164C78.6771 44.9164 82.5471 41.5834 84.9409 38.0036C85.0603 37.7973 84.9809 37.7156 84.861 37.633L84.3423 37.2218C84.223 37.098 84.1428 37.1393 84.0236 37.3448C82.9215 38.9429 81.4506 40.2521 79.7354 41.1617C78.0202 42.0714 76.1111 42.5547 74.1695 42.5709C71.497 42.5709 69.2231 42.2421 66.5099 39.1142C63.3982 35.5756 62.6801 30.9259 62.6801 28.5393C62.6402 22.5308 65.5127 15.9879 72.6536 15.9879C75.8055 15.9879 77.9193 17.3873 79.5952 19.1565C80.9432 20.6476 81.9988 22.3786 82.7071 24.2594C82.8264 24.5888 82.9066 24.6294 83.1057 24.5888L83.7041 24.4238C83.8635 24.3826 83.9036 24.2182 83.8635 24.0126C83.664 22.8604 82.8661 16.8112 82.8661 16.0292C82.8661 15.4531 82.7862 15.3711 82.4275 15.3711C82.0688 15.3711 81.9888 15.3711 81.9088 15.618L81.5895 16.8111C81.5095 17.0991 81.3102 17.1404 80.7916 16.8111C78.3503 15.3639 75.5714 14.5835 72.7334 14.5481C70.8758 14.5277 69.0336 14.8857 67.3189 15.6002C65.6043 16.3147 64.0531 17.3708 62.7599 18.7041C60.076 21.6958 58.6225 25.5912 58.6908 29.6092C58.6908 33.5596 60.0867 38.3325 62.9593 41.1312C65.353 43.3942 68.3449 44.9166 73.0526 44.9166L73.0529 44.9164Z" fill="white"/>
</svg>
